<svg width="70" height="58" viewBox="0 0 70 58" fill="none" xmlns="http://www.w3.org/2000/svg">
<path d="M38.2985 0.241884C37.7488 0.384515 37.1745 0.532481 36.6516 0.760426C36.1966 0.959044 35.7446 1.27319 35.3587 1.59089C33.8049 2.87102 33.4612 4.45641 33.1604 6.38971C32.9563 7.70184 32.6989 9.04018 31.8696 10.1048C30.1049 12.37 27.7159 12.9992 25.9945 14.9761C25.2189 15.867 24.7871 16.8694 24.8601 18.0771C25.0346 20.975 27.7408 22.0152 29.5571 23.6682C30.1135 24.1747 30.7297 24.7679 30.7628 25.5886C30.8457 27.6672 27.504 28.8833 26.0121 29.5449C25.0423 29.9751 24.0592 30.3959 23.1186 30.8922C21.9305 31.5187 20.6436 32.3829 19.7555 33.4187C18.8046 34.5277 18.1549 36.0281 18.255 37.5309C18.3891 39.5454 19.5552 41.1155 20.9835 42.3913C24.5327 45.5618 30.0731 46.9755 34.6639 47.0963C35.5615 47.1199 36.4527 47.06 37.3473 46.9917C42.0823 46.63 48.9422 45.0055 52.1404 41.1201C53.4888 39.482 53.9682 37.6507 53.3845 35.5709C53.2881 35.2271 52.93 34.6157 52.9071 34.3269C52.9727 34.3642 53.1919 34.6712 53.2675 34.7601C54.432 36.1508 55.0855 37.9211 55.1132 39.7604C55.2171 49.4612 38.8691 54.4633 31.6204 55.9166C31.2741 55.986 30.9196 56.0489 30.5728 56.12C28.3655 56.5888 26.1406 56.9655 23.9037 57.2492C20.5061 57.6409 17.0901 57.8395 13.6715 57.844C14.1296 57.3518 14.4755 57.0756 14.9735 56.578C16.1186 55.4277 17.2882 54.1361 18.5923 53.1922C18.6645 53.14 20.7734 53.2894 20.9874 53.2931C22.2481 53.3151 23.5526 53.3594 24.8129 53.3206C30.4268 53.1478 36.1012 52.3983 41.4331 50.5093C41.998 50.3092 43.4995 49.7335 43.9382 49.3778L43.9709 49.3582C44.1863 49.2303 44.9432 48.8805 45.0239 48.755L45.0622 48.7471C44.6305 48.7758 43.8416 49.1572 43.3361 49.2447C43.0127 49.3761 42.6045 49.4762 42.2637 49.5666C36.0264 51.2212 29.105 51.6312 23.0056 49.1889C19.6639 47.8507 16.2643 45.5485 15.1389 41.8467C15.0616 41.5918 14.9408 40.7803 15.0293 40.5479C15.2145 40.7622 15.3542 41.2098 15.5342 41.4929C17.6719 44.8555 21.7526 46.5046 25.4437 47.1944C25.7969 47.2604 26.3413 47.3876 26.6691 47.3328L26.6554 47.2901C26.2768 47.0993 25.4939 46.9491 25.0299 46.7788C21.9537 45.6491 17.7007 43.2716 16.2239 40.1236C15.6593 38.8921 15.459 37.5155 15.6485 36.1667C16.1061 32.9317 18.4518 31.237 20.9268 29.5729C22.3387 28.6234 24.2719 27.7991 24.8537 26.0325C25.7178 23.4078 22.8436 21.7055 21.7982 19.5407C20.7553 17.3804 21.3707 15.1685 22.9927 13.536C24.5379 11.9812 26.3916 11.0339 27.7408 9.15171C28.8584 7.59253 29.0475 6.29996 29.6413 4.48618C30.2153 2.73461 31.0846 1.67353 32.6732 0.816407C34.0146 0.0930279 36.8688 -0.275323 38.2985 0.241884Z" fill="black"/>
<path d="M31.6763 31.4885C36.1854 29.4907 42.7908 29.9462 47.3621 31.6604C49.2055 32.3518 51.5372 33.8688 52.155 35.9208C53.4721 40.2952 48.1836 42.8656 45.0335 44.0787C38.5038 46.3317 30.7787 46.5629 24.525 43.2496C22.7143 42.2903 20.3338 40.4536 19.6966 38.3929C19.4177 37.4683 19.4805 36.4696 19.8732 35.5903C21.8876 31.065 29.9287 30.8469 31.7536 27.082C32.6796 25.1718 31.5637 23.5815 30.1204 22.4067C28.8064 21.3376 26.8105 20.3956 26.2609 18.6325C25.3702 15.7736 29.2284 14.1905 30.9497 12.8695C31.9032 12.1381 32.6865 11.2956 33.328 10.2572C34.3206 8.6496 34.2501 6.79806 34.7168 5.02871C34.8663 4.46351 35.1103 3.95253 35.3639 3.43177C35.8584 3.99652 36.5412 5.27931 36.8811 5.98403C37.4574 7.12242 37.5462 8.25504 37.2259 9.46896C36.1317 13.6928 31.1057 13.9545 28.5271 16.6752C27.8168 17.4243 27.9947 18.9662 28.7269 19.6522C30.0667 20.9088 31.941 21.6864 33.5046 22.5978C35.6066 23.8237 37.1328 25.8969 35.0811 28.0489C34.5092 28.6452 33.4565 29.225 32.7226 29.5903C30.813 30.5407 28.7467 31.2108 26.7791 32.027C24.4859 32.9979 20.1761 35.0041 21.0536 38.2798C21.0957 38.4365 21.1197 38.5366 21.265 38.6217C21.5155 38.6356 22.0539 37.9544 22.3005 37.7121C23.7412 36.2985 25.1575 35.324 26.8956 34.3731C27.0653 34.2909 28.0893 33.8088 28.1799 33.7399C34.8199 31.1241 41.6083 32.9548 46.6859 37.9905C47.0109 38.3129 47.5114 38.7987 47.7624 39.1549C47.2329 39.7796 46.8341 40.1698 46.2582 40.7315C46.089 40.5342 45.861 40.2904 45.6734 40.1056C42.8812 37.344 39.5809 35.3669 35.6904 34.9343C32.0557 34.5304 28.467 35.8087 25.5223 37.9775C24.4489 38.768 23.5432 39.6799 22.6262 40.6573C22.6838 40.721 22.7422 40.7837 22.8019 40.8453C25.4578 43.584 30.0748 44.9154 33.7173 45.0684C34.1242 45.0778 34.5646 45.157 34.9694 45.1445C39.5974 45.002 44.7401 43.9872 48.2565 40.6568C48.8279 40.1157 49.3995 38.9934 49.3466 38.1808C49.2169 36.1852 47.3008 34.8419 45.7498 33.995C42.5744 32.2425 38.9703 31.4285 35.3927 31.2783C34.0967 31.2236 32.9555 31.4129 31.6763 31.4885Z" fill="black"/>
<path d="M67.9755 57.833C67.7868 57.8709 65.8218 57.8434 65.4917 57.8434L32.3891 57.8439C31.3562 57.8434 30.1977 57.8049 29.1794 57.8412C29.9446 57.4782 31.7919 57.2592 32.7058 57.0288C34.5157 56.5725 36.3491 56.0904 38.1456 55.5804C38.4815 55.485 40.0521 55.5391 40.477 55.5391L59.7549 55.5455C60.2948 54.7532 60.902 53.683 61.3929 52.8517L63.757 48.8832C63.2955 47.9267 62.161 46.1269 61.5892 45.1738C60.373 43.1465 59.1739 41.0244 57.9467 39.016C57.7124 38.6873 57.4545 38.1757 57.2341 37.8124C56.6666 36.8768 56.0157 35.735 55.3116 34.9032C51.5205 30.4247 44.9901 29.0344 39.4851 28.8673C38.7045 28.8438 37.946 28.862 37.1739 28.9673C37.0158 28.9891 36.5283 29.0531 36.402 28.986C36.6078 28.8367 37.0118 28.7225 37.2609 28.6554C42.5477 27.2322 48.9219 27.8351 53.6763 30.6571C55.0999 31.4849 56.3535 32.5922 57.3665 33.9172C58.359 35.2268 59.5681 37.4626 60.4167 38.903L65.1122 46.8233L67.7782 51.3014C68.4191 52.3728 69.4927 54.0229 69.9611 55.1804C70.0766 55.4657 69.9342 56.4837 69.7118 56.7992C69.1373 57.614 68.7715 57.6186 67.9755 57.833Z" fill="black"/>
<path d="M11.7388 57.8418C9.60066 57.8694 7.4071 57.8445 5.26511 57.8452L3.08058 57.8458C2.45109 57.8459 1.75113 57.9207 1.17835 57.6216C0.226594 57.1245 -0.301488 55.8196 0.18277 54.8C0.653278 53.8092 1.32659 52.8119 1.89163 51.8616L5.69222 45.4901L16.3446 27.5788C17.7441 25.2042 19.3262 22.6733 20.6479 20.2748C20.8765 20.5618 21.0587 20.8568 21.2568 21.1657C21.4841 21.5211 21.7982 21.913 22.0582 22.2516C21.8046 22.6213 21.5528 23.1416 21.2993 23.538C20.2999 25.1025 19.4323 26.7829 18.487 28.367L10.4854 41.7745C8.35198 45.3129 6.23836 48.8642 4.14535 52.4282C3.74875 53.1155 2.54691 54.9559 2.31616 55.5376C6.1971 55.5749 10.17 55.4758 14.0342 55.5515C13.2019 56.5371 12.6364 56.9835 11.7388 57.8418Z" fill="black"/>
<path d="M55.12 29.9631C54.8482 29.8742 54.1271 29.3765 53.8151 29.2188C53.1014 28.8571 52.3863 28.5056 51.6664 28.1648C51.2043 27.9458 50.8127 27.0091 50.5326 26.5315L48.8723 23.7366L40.1446 8.92465L37.6666 4.66169C37.3164 4.05739 36.7161 2.95455 36.344 2.42624L36.9195 2.12808C37.2156 1.95701 38.068 1.56511 38.3911 1.63265C38.6564 1.98545 38.8534 2.38402 39.0885 2.75904C39.6585 3.6686 40.1712 4.60393 40.7112 5.53037L53.2171 26.7714C53.8435 27.8391 54.507 28.894 55.12 29.9631Z" fill="black"/>
<path d="M34.6214 42.5163C32.8463 42.6644 31.29 41.2989 31.1426 39.4637C30.9948 37.6285 32.3114 36.0159 34.086 35.8588C35.8666 35.7012 37.4324 37.0685 37.5805 38.9101C37.7286 40.7517 36.4024 42.3677 34.6214 42.5163Z" fill="black"/>
<path d="M59.0129 54.1956L47.9528 54.193C46.176 54.1932 44.0573 54.1299 42.3206 54.1897C42.7552 53.9288 43.997 53.3732 44.5013 53.2549C44.6981 53.2088 45.5328 53.2282 45.803 53.2309C46.4442 53.2371 47.0853 53.2392 47.7264 53.2373L55.5133 53.2342C56.2942 53.2353 57.9188 53.3254 58.5901 53.1044C59.2718 52.0195 59.9606 50.793 60.6098 49.6783C60.789 49.3717 60.9386 49.1336 61.068 48.8017C60.7897 48.2358 60.1734 47.2648 59.8417 46.6964L57.2576 42.2781C56.2101 40.4803 56.2845 41.0304 56.3342 38.8319C57.6056 40.917 58.8271 43.0871 60.0765 45.1953L61.3503 47.3386C61.6383 47.8163 62.0154 48.3838 62.244 48.8744C61.8032 49.6133 59.3575 53.911 59.0129 54.1956Z" fill="black"/>
<path d="M15.4105 54.1933L4.62616 54.1959C5.06616 53.3265 5.60242 52.5231 6.09613 51.691C6.66117 50.7384 7.22191 49.7851 7.79038 48.834L13.4176 39.3372C13.4678 39.2356 13.6651 38.9618 13.7381 38.8548C13.6801 39.105 13.6371 39.2663 13.6243 39.5172C13.6139 39.7129 13.7063 40.6326 13.6573 40.7508C13.3127 41.5799 12.6626 42.4956 12.2076 43.2735L8.55007 49.4857C7.84839 50.6629 6.98214 52.0163 6.3475 53.2165C7.19054 53.2842 8.50839 53.2238 9.39054 53.2351C11.7259 53.2648 14.1008 53.1915 16.4348 53.248C15.9914 53.7561 15.9454 53.7766 15.4105 54.1933Z" fill="black"/>
<path d="M49.5417 27.4908C49.1078 27.4295 48.6869 27.3073 48.2742 27.1589C47.8827 26.6186 47.365 25.6748 47.0147 25.0754L44.9796 21.6016C42.8054 17.8171 40.5884 14.0594 38.3291 10.3288C38.3752 9.94529 38.4936 9.58271 38.5492 9.18503C38.5926 9.08683 38.5717 9.11971 38.6471 9.04417C38.8346 9.14193 39.8865 11.0037 40.0811 11.3365C40.9208 12.7913 41.7689 14.2411 42.6254 15.6857L47.4946 23.9739C48.1801 25.1505 48.875 26.3 49.5417 27.4908Z" fill="black"/>
<path d="M19.8912 28.6607L19.8496 28.6185C19.8882 28.235 21.2701 26.2613 21.5473 25.6912C21.6581 25.4633 22.8527 23.4793 22.9072 23.438C23.0576 23.4984 23.0383 23.5206 23.1582 23.6682C23.3176 23.9068 23.3666 24.0121 23.4869 24.2711C23.2011 24.8101 21.7368 27.4854 21.4093 27.752C20.968 28.1124 20.4034 28.3159 19.9308 28.6336L19.8912 28.6607Z" fill="black"/>
<path d="M26.404 34.0478L26.4019 34.0065C26.395 33.8759 26.3989 33.8443 26.352 33.719C26.3378 33.8834 26.3503 34.0718 26.2584 34.1665C26.1161 34.1585 25.9993 34.0372 25.9073 33.9305C26.1161 34.4273 26.6159 34.174 26.7302 34.3473C26.5041 34.5428 26.0289 34.3669 25.7664 34.2838C25.68 34.1505 25.4144 33.5231 25.4385 33.3525C25.4561 33.2267 25.7702 32.9672 25.8789 32.8752C26.0762 32.8455 26.0985 32.8544 26.2996 32.8872C26.746 32.6042 26.9652 32.4722 27.434 32.2367L27.3987 32.1492C27.9509 31.8822 28.6521 32.8695 28.5396 33.2871L28.4227 33.4062L28.3746 33.4044L28.378 33.3369C28.3844 33.1894 28.4081 33.0921 28.3393 32.9694C28.2951 33.0534 28.3071 33.0548 28.2921 33.1565C28.091 33.1667 27.9359 32.7597 27.6325 32.8339C27.733 32.9997 27.8903 32.9828 28.0867 33.0885C28.1498 33.2836 28.2431 33.508 28.1644 33.7035L28.1799 33.7399C28.0893 33.8088 27.0653 34.2909 26.8956 34.3731L26.9042 34.2807C26.6597 33.919 26.6309 33.9799 26.6128 33.5164C26.5016 33.6204 26.5209 33.871 26.404 34.0478Z" fill="#D3D3D2"/>
<path d="M43.9382 49.3778C43.7867 49.314 43.797 49.343 43.5965 49.4301L43.6024 49.4288C43.5233 49.3748 43.5043 49.3662 43.4681 49.2749L43.3361 49.2447C43.8416 49.1572 44.6305 48.7758 45.0622 48.7471L45.0239 48.755C44.9432 48.8805 44.1863 49.2303 43.9709 49.3582L43.9382 49.3778Z" fill="#616062"/>
<path d="M26.9042 34.2807C26.7387 34.2611 26.5114 34.178 26.404 34.0478C26.5209 33.871 26.5016 33.6204 26.6128 33.5164C26.6309 33.9799 26.6597 33.919 26.9042 34.2807Z" fill="black"/>
</svg>
